<?xml version="1.0" encoding="utf-8"?>
<!-- Generator: Adobe Illustrator 22.1.0, SVG Export Plug-In . SVG Version: 6.00 Build 0)  -->
<svg version="1.1" id="Слой_1" xmlns="http://www.w3.org/2000/svg" xmlns:xlink="http://www.w3.org/1999/xlink" x="0px" y="0px"
	 viewBox="0 0 300 175" style="enable-background:new 0 0 300 175;" xml:space="preserve">
<style type="text/css">
	.st0{fill:#08071C;}
	.st1{fill:#4A325E;}
	.st2{fill:#EB4D4B;}
</style>
<g>
	<g>
		<path class="st0" d="M102.1,87.7L102.1,87.7c1-3.1,1.6-6.4,1.6-9.9c0-17.4-14.1-31.5-31.5-31.5S40.6,60.4,40.6,77.8
			c0,3.5,0.6,6.9,1.6,10h0l0,0.1c0.6,1.6,1.2,3.2,2,4.7l27.8,64.4l27.8-64.3C100.7,91.2,101.5,89.5,102.1,87.7L102.1,87.7z"/>
		<path d="M2.6,114V48h16.3v51.6h23.3V114H2.6z"/>
		<path d="M137.2,60.9c-4,0-7.1,1.7-9.3,5.2c-2.2,3.5-3.4,8.3-3.4,14.4c0,12.7,4.5,19,13.6,19c2.7,0,5.4-0.4,8-1.2
			c2.6-0.8,5.2-1.8,7.8-2.9v15.1c-5.2,2.4-11,3.7-17.6,3.7c-9.4,0-16.6-2.9-21.5-8.7c-5-5.8-7.5-14.1-7.5-25c0-6.8,1.2-12.8,3.6-18
			c2.4-5.2,5.9-9.1,10.4-11.9c4.5-2.8,9.9-4.2,16-4.2c6.7,0,13.1,1.5,19.2,4.6l-5.1,14c-2.3-1.1-4.6-2.1-6.9-2.9
			C142.3,61.3,139.9,60.9,137.2,60.9z"/>
		<path class="st1" d="M198.9,1.3c12.2,0,21.6,2.4,28.4,7.3c6.8,4.9,10.1,11.8,10.1,20.8c0,6.1-1.6,11.5-4.8,16.1
			c-3.2,4.6-8.2,8.6-15.1,12c8.5,4.8,14.5,9.7,18,14.5c3.5,4.8,5.2,10,5.2,15.6c0,10.3-3.7,18.2-11.1,23.8
			c-7.4,5.6-17.8,8.4-31.1,8.4c-13.6,0-24-2.7-31.2-8.2c-7.2-5.5-10.8-13.4-10.8-23.7c0-6.7,1.6-12.4,4.8-17.1s8.6-9,16.2-12.8
			c-6.1-4.1-10.6-8.5-13.4-13.2c-2.8-4.7-4.2-9.9-4.2-15.5c0-8.8,3.4-15.7,10.3-20.6C177.2,3.8,186.8,1.3,198.9,1.3z M186.6,89.4
			c0,3.8,1,6.9,3.1,9.2s4.9,3.5,8.6,3.5c8.3,0,12.4-4,12.4-12c0-3-0.9-6-2.7-8.9c-1.8-2.9-5-6.2-9.7-9.9c-4.2,2.9-7.2,5.8-9,8.8
			C187.5,83,186.6,86.1,186.6,89.4z M198.8,21.6c-2.7,0-5,0.9-6.8,2.6c-1.9,1.7-2.8,4-2.8,6.7c0,5,3.1,9.5,9.3,13.3
			c3.8-2.4,6.3-4.6,7.7-6.6c1.4-2,2.1-4.2,2.1-6.7c0-2.8-0.9-5-2.8-6.7C203.6,22.4,201.4,21.6,198.8,21.6z"/>
		<path d="M262.3,90v24h-16.8V48h20.4c16.9,0,25.3,6.5,25.3,19.5c0,7.6-3.5,13.6-10.5,17.7l18.1,28.7h-19l-13.2-24H262.3z
			 M262.3,76.6h3.1c5.9,0,8.8-2.8,8.8-8.3c0-4.5-2.9-6.8-8.6-6.8h-3.3V76.6z"/>
		<circle class="st2" cx="72.1" cy="77.8" r="21.8"/>
		<g>
			<path d="M72.4,166.2c-14.5,0-36-2.3-36-8.5s21.5-8.5,36-8.5c14.5,0,36,2.3,36,8.5S86.8,166.2,72.4,166.2z M72.4,151.2
				c-20.7,0-33.9,3.8-33.9,6.4c0,2.6,13.2,6.4,33.9,6.4c20.7,0,33.9-3.8,33.9-6.4C106.2,155,93,151.2,72.4,151.2z"/>
		</g>
		<g>
			<path d="M72.1,169.8c-25.6,0-52.8-4.3-52.8-12.2c0-7.9,27.2-12.2,52.8-12.2s52.8,4.3,52.8,12.2
				C124.9,165.5,97.7,169.8,72.1,169.8z M72.1,147.6c-29.9,0-50.7,5.3-50.7,10.1c0,4.8,20.8,10.1,50.7,10.1s50.7-5.3,50.7-10.1
				C122.8,152.9,102,147.6,72.1,147.6z"/>
		</g>
		<g>
			<path d="M72.1,173.7c-34.4,0-70.9-5.6-70.9-16c0-10.4,36.5-16,70.9-16s70.9,5.6,70.9,16C143.1,168.1,106.5,173.7,72.1,173.7z
				 M72.1,143.7c-40.6,0-68.8,7.4-68.8,13.9c0,6.6,28.3,13.9,68.8,13.9s68.8-7.4,68.8-13.9C141,151,112.7,143.7,72.1,143.7z"/>
		</g>
	</g>
	<g>
		<path class="st1" d="M143.5,127.6h4.6c2.1,0,3.6,0.3,4.6,0.9c1,0.6,1.4,1.6,1.4,2.9c0,0.9-0.2,1.6-0.6,2.2c-0.4,0.6-1,0.9-1.7,1
			v0.1c0.9,0.2,1.6,0.6,2,1.2c0.4,0.6,0.6,1.3,0.6,2.3c0,1.4-0.5,2.4-1.5,3.2c-1,0.8-2.3,1.1-4,1.1h-5.6V127.6z M146.7,133.5h1.8
			c0.9,0,1.5-0.1,1.9-0.4c0.4-0.3,0.6-0.7,0.6-1.3c0-0.6-0.2-1-0.6-1.2c-0.4-0.2-1.1-0.4-2-0.4h-1.7V133.5z M146.7,136v3.9h2.1
			c0.9,0,1.5-0.2,1.9-0.5c0.4-0.3,0.6-0.8,0.6-1.5c0-1.2-0.9-1.9-2.6-1.9H146.7z"/>
		<path class="st1" d="M155.6,131.1h3.4l2.1,6.4c0.2,0.6,0.3,1.2,0.4,2h0.1c0.1-0.7,0.2-1.4,0.4-2l2.1-6.4h3.3l-4.8,12.8
			c-0.4,1.2-1.1,2.1-1.9,2.7c-0.8,0.6-1.8,0.9-2.9,0.9c-0.5,0-1.1-0.1-1.6-0.2v-2.5c0.4,0.1,0.8,0.1,1.2,0.1c0.5,0,1-0.2,1.4-0.5
			c0.4-0.3,0.7-0.8,1-1.5l0.2-0.6L155.6,131.1z"/>
		<path class="st1" d="M183.9,142.5l-1.1-3.5h-5.4l-1.1,3.5h-3.4l5.3-14.9h3.9l5.3,14.9H183.9z M182,136.3c-1-3.2-1.6-5-1.7-5.4
			s-0.2-0.8-0.3-1c-0.2,0.9-0.9,3-1.9,6.4H182z"/>
		<path class="st1" d="M197,142.5l-0.4-1.5h-0.2c-0.3,0.5-0.8,0.9-1.4,1.2c-0.6,0.3-1.3,0.4-2.1,0.4c-1.3,0-2.3-0.4-3-1.1
			c-0.7-0.7-1-1.7-1-3.1v-7.4h3.1v6.6c0,0.8,0.1,1.4,0.4,1.8c0.3,0.4,0.8,0.6,1.4,0.6c0.9,0,1.5-0.3,1.9-0.9
			c0.4-0.6,0.6-1.5,0.6-2.9v-5.4h3.1v11.4H197z"/>
		<path class="st1" d="M207.4,140.3c0.5,0,1.2-0.1,2-0.4v2.3c-0.8,0.3-1.7,0.5-2.8,0.5c-1.2,0-2.1-0.3-2.7-0.9
			c-0.6-0.6-0.8-1.6-0.8-2.8v-5.5h-1.5v-1.3l1.7-1l0.9-2.4h2v2.4h3.2v2.3H206v5.5c0,0.4,0.1,0.8,0.4,1
			C206.7,140.1,207,140.3,207.4,140.3z"/>
		<path class="st1" d="M222,136.8c0,1.9-0.5,3.3-1.5,4.3c-1,1-2.3,1.6-4.1,1.6c-1.1,0-2.1-0.2-2.9-0.7c-0.8-0.5-1.5-1.2-1.9-2.1
			c-0.4-0.9-0.7-1.9-0.7-3.1c0-1.9,0.5-3.3,1.5-4.3s2.3-1.5,4.1-1.5c1.1,0,2.1,0.2,2.9,0.7c0.8,0.5,1.5,1.2,1.9,2
			C221.8,134.6,222,135.6,222,136.8z M214.1,136.8c0,1.1,0.2,2,0.6,2.6c0.4,0.6,1,0.9,1.8,0.9c0.8,0,1.4-0.3,1.8-0.9
			c0.4-0.6,0.5-1.4,0.5-2.6c0-1.1-0.2-2-0.5-2.5c-0.4-0.6-1-0.8-1.8-0.8c-0.8,0-1.4,0.3-1.8,0.8S214.1,135.7,214.1,136.8z"/>
		<path class="st1" d="M235.1,132.3c0,1.6-0.5,2.8-1.5,3.7c-1,0.8-2.4,1.3-4.3,1.3h-1.4v5.3h-3.2v-14.9h4.8c1.8,0,3.2,0.4,4.1,1.2
			C234.6,129.6,235.1,130.7,235.1,132.3z M227.9,134.6h1c1,0,1.7-0.2,2.2-0.6c0.5-0.4,0.7-0.9,0.7-1.7c0-0.7-0.2-1.3-0.6-1.6
			c-0.4-0.4-1-0.5-1.9-0.5h-1.4V134.6z"/>
		<path class="st1" d="M244,130.9c0.4,0,0.8,0,1,0.1l-0.2,2.9c-0.3-0.1-0.6-0.1-0.9-0.1c-1,0-1.8,0.3-2.3,0.8
			c-0.6,0.5-0.8,1.2-0.8,2.1v5.8h-3.1v-11.4h2.4l0.5,1.9h0.2c0.4-0.6,0.8-1.2,1.4-1.5C242.6,131.1,243.3,130.9,244,130.9z"/>
		<path class="st1" d="M257.4,136.8c0,1.9-0.5,3.3-1.5,4.3c-1,1-2.3,1.6-4.1,1.6c-1.1,0-2.1-0.2-2.9-0.7c-0.8-0.5-1.5-1.2-1.9-2.1
			c-0.4-0.9-0.7-1.9-0.7-3.1c0-1.9,0.5-3.3,1.5-4.3s2.3-1.5,4.1-1.5c1.1,0,2.1,0.2,2.9,0.7c0.8,0.5,1.5,1.2,1.9,2
			C257.2,134.6,257.4,135.6,257.4,136.8z M249.6,136.8c0,1.1,0.2,2,0.6,2.6c0.4,0.6,1,0.9,1.8,0.9c0.8,0,1.4-0.3,1.8-0.9
			c0.4-0.6,0.5-1.4,0.5-2.6c0-1.1-0.2-2-0.5-2.5c-0.4-0.6-1-0.8-1.8-0.8c-0.8,0-1.4,0.3-1.8,0.8S249.6,135.7,249.6,136.8z"/>
		<path class="st1" d="M264.8,140.3c0.5,0,1.2-0.1,2-0.4v2.3c-0.8,0.3-1.7,0.5-2.8,0.5c-1.2,0-2.1-0.3-2.7-0.9
			c-0.6-0.6-0.8-1.6-0.8-2.8v-5.5h-1.5v-1.3l1.7-1l0.9-2.4h2v2.4h3.2v2.3h-3.2v5.5c0,0.4,0.1,0.8,0.4,1
			C264.1,140.1,264.4,140.3,264.8,140.3z"/>
		<path class="st1" d="M274.2,142.7c-1.8,0-3.3-0.5-4.3-1.5c-1-1-1.5-2.4-1.5-4.3c0-1.9,0.5-3.4,1.4-4.4c1-1,2.3-1.6,4-1.6
			c1.6,0,2.9,0.5,3.8,1.4s1.3,2.2,1.3,3.8v1.5h-7.3c0,0.9,0.3,1.6,0.8,2.1s1.2,0.7,2.1,0.7c0.7,0,1.3-0.1,1.9-0.2
			c0.6-0.1,1.2-0.4,1.9-0.7v2.4c-0.5,0.3-1.1,0.5-1.7,0.6C275.8,142.7,275.1,142.7,274.2,142.7z M273.8,133.1
			c-0.7,0-1.2,0.2-1.5,0.6c-0.4,0.4-0.6,1-0.6,1.8h4.4c0-0.8-0.2-1.4-0.6-1.8C274.9,133.3,274.4,133.1,273.8,133.1z"/>
		<path class="st1" d="M286,142.7c-3.5,0-5.3-1.9-5.3-5.8c0-1.9,0.5-3.4,1.4-4.4c1-1,2.3-1.5,4.1-1.5c1.3,0,2.5,0.3,3.5,0.8
			l-0.9,2.4c-0.5-0.2-0.9-0.4-1.4-0.5s-0.8-0.2-1.3-0.2c-1.6,0-2.4,1.1-2.4,3.4c0,2.2,0.8,3.3,2.4,3.3c0.6,0,1.1-0.1,1.7-0.2
			c0.5-0.2,1-0.4,1.5-0.7v2.7c-0.5,0.3-1,0.5-1.5,0.7C287.4,142.7,286.8,142.7,286,142.7z"/>
		<path class="st1" d="M296.9,140.3c0.5,0,1.2-0.1,2-0.4v2.3c-0.8,0.3-1.7,0.5-2.8,0.5c-1.2,0-2.1-0.3-2.7-0.9
			c-0.6-0.6-0.8-1.6-0.8-2.8v-5.5h-1.5v-1.3l1.7-1l0.9-2.4h2v2.4h3.2v2.3h-3.2v5.5c0,0.4,0.1,0.8,0.4,1
			C296.1,140.1,296.5,140.3,296.9,140.3z"/>
	</g>
</g>
</svg>
